<?xml version="1.0" ?><svg fill="none" height="24" viewBox="0 0 24 24" width="24" xmlns="http://www.w3.org/2000/svg"><path clip-rule="evenodd" d="M1.5 7.73608C1.5 5.87762 3.45578 4.66888 5.11803 5.50001L7.22361 6.55279C7.393 6.63749 7.5 6.81062 7.5 7.00001V19.5C7.5 19.7761 7.27614 20 7 20H4C2.61929 20 1.5 18.8807 1.5 17.5V7.73608ZM4.67082 6.39443C3.67347 5.89576 2.5 6.621 2.5 7.73608V17.5C2.5 18.3284 3.17157 19 4 19H6.5V7.30902L4.67082 6.39443Z" fill="black" fill-rule="evenodd"/><path clip-rule="evenodd" d="M22.5 7.73608C22.5 5.87762 20.5442 4.66888 18.882 5.50001L16.7764 6.55279C16.607 6.63749 16.5 6.81062 16.5 7.00001V19.5C16.5 19.7761 16.7239 20 17 20H20C21.3807 20 22.5 18.8807 22.5 17.5V7.73608ZM19.3292 6.39443C20.3265 5.89576 21.5 6.621 21.5 7.73608V17.5C21.5 18.3284 20.8284 19 20 19H17.5V7.30902L19.3292 6.39443Z" fill="black" fill-rule="evenodd"/><path clip-rule="evenodd" d="M4.67082 6.39443C3.67347 5.89576 2.5 6.621 2.5 7.73607V9.19099L12 13.941L21.5 9.19099V7.73607C21.5 6.621 20.3265 5.89576 19.3292 6.39444L12.2236 9.94722C12.0828 10.0176 11.9172 10.0176 11.7764 9.94722L4.67082 6.39443ZM1.5 7.73607C1.5 5.87762 3.45578 4.66888 5.11803 5.50001L12 8.94099L18.882 5.50001C20.5442 4.66888 22.5 5.87762 22.5 7.73607V9.50001C22.5 9.68939 22.393 9.86252 22.2236 9.94722L12.2236 14.9472C12.0828 15.0176 11.9172 15.0176 11.7764 14.9472L1.77639 9.94722C1.607 9.86252 1.5 9.68939 1.5 9.50001V7.73607Z" fill="black" fill-rule="evenodd"/></svg>